<?xml version="1.0" encoding="utf-8"?>
<!-- Generator: Adobe Illustrator 21.0.2, SVG Export Plug-In . SVG Version: 6.00 Build 0)  -->
<svg version="1.1" id="Calque_1" xmlns="http://www.w3.org/2000/svg" xmlns:xlink="http://www.w3.org/1999/xlink" x="0px" y="0px"
	 viewBox="0 0 1024 1024" style="enable-background:new 0 0 1024 1024;" xml:space="preserve">
<style type="text/css">
	.st0{fill:#434242;}
</style>
<path class="st0" d="M512,64c-176.7,0-320,143.3-320,320c0,104.7,50.3,197.6,128,256v192c0,35.3,28.7,64,64,64c0,35.3,28.7,64,64,64
	h128c35.3,0,64-28.7,64-64c35.3,0,64-28.7,64-64V640c77.7-58.4,128-151.3,128-256C832,207.3,688.7,64,512,64z M640,800
	c0,17.7-14.3,32-32,32H416c-17.7,0-32-14.3-32-32v-32h256V800z M704,553.3c-33.2,33-64,42.4-64,124V704h-64V576l128-128v-64l-64-64
	l-64,64l-64-64l-64,64l-64-64l-64,64v64l128,128v128h-64v-26.7c0-81.7-30.8-91-64-124c-39.8-45.1-64-104.4-64-169.3
	c0-141.4,114.6-256,256-256s256,114.6,256,256C768,448.9,743.8,508.2,704,553.3z M512,576L384,448v-64l64,64l64-64l64,64l64-64v64
	L512,576z"/>
</svg>
