<?xml version="1.0" encoding="utf-8"?>
<!-- Generator: Adobe Illustrator 21.0.2, SVG Export Plug-In . SVG Version: 6.00 Build 0)  -->
<svg version="1.1" id="Calque_1" xmlns="http://www.w3.org/2000/svg" xmlns:xlink="http://www.w3.org/1999/xlink" x="0px" y="0px"
	 viewBox="0 0 480 480" style="enable-background:new 0 0 480 480;" xml:space="preserve">
<style type="text/css">
	.st0{fill:#434242;}
</style>
<g id="mic">
	<path class="st0" d="M291,241c0,26.4-21.6,48-48,48h-11.5c-26.4,0-48-21.6-48-48V104c0-26.4,21.6-48,48-48H243
		c26.4,0,48,21.6,48,48V241z"/>
	<path class="st0" d="M342.4,209.9h-9c-4.9,0-9,4-9,9v8c0,50.3-37.1,91-87.4,91c-50.3,0-87.1-40.7-87.1-91v-8c0-4.9-4-9-9-9h-9
		c-4.9,0-9,4-9,9v8c0,58.9,40.2,107.6,96.1,116.4v37h-34.4c-4.9,0-9,4-9,9V407c0,4.9,4,9,9,9h104.7c4.9,0,9-4,9-9v-17.9
		c0-4.9-4-9-9-9H255v-37c55.9-8.7,96.3-57.5,96.3-116.4v-8C351.3,213.9,347.3,209.9,342.4,209.9z"/>
</g>
</svg>
